#!OML:ASF H:\LiuWeirdWalks\Patient Classification 1\Patient 1\Session 1\male.ASF
:FULLY-SPECIFIED
:DEGREES
727
root 1.50782 17.8062 -7.32673 6.86034 2.06228 -8.00195
lowerback 13.9937 -0.601058 -2.52261
upperback 1.0313 -1.09572 1.32379
thorax -6.6873 -0.440805 3.04607
lowerneck -18.1668 2.22942 8.38206
upperneck 13.0017 2.22423 -7.95428
head 7.1436 0.759667 -3.73397
rclavicle 7.55382e-015 7.15625e-015
rhumerus -20.4011 -33.9619 -0.756206
rradius 31.3809
rwrist -1.23042
rhand -21.0417 -4.40153
rfingers 7.12502
rthumb 5.33412 -34.3144
lclavicle 7.55382e-015 7.15625e-015
lhumerus -24.8512 30.5017 25.928
lradius 35.499
lwrist 9.78362
lhand -19.9333 -2.09053
lfingers 7.12502
lthumb 6.40423 27.7927
rfemur 3.06419 -0.040646 21.2673
rtibia 25.7342
rfoot -8.84672 -17.1025
rtoes -12.2412
lfemur -32.7092 3.29166 -6.15659
ltibia 34.2368
lfoot -1.22255 11.5842
ltoes -8.54419
728
root 1.5317 17.8242 -7.23383 6.90531 2.26164 -8.20814
lowerback 13.944 -0.685148 -2.88687
upperback 0.976615 -1.27802 1.11347
thorax -6.70219 -0.520996 3.06372
lowerneck -18.1817 2.22801 8.33561
upperneck 13.2939 2.15258 -7.41585
head 7.22781 0.773195 -3.55831
rclavicle -9.93923e-015 -1.27222e-014
rhumerus -20.5119 -33.9743 -0.710393
rradius 31.3119
rwrist -1.23481
rhand -21.0271 -4.47626
rfingers 7.12502
rthumb 5.34817 -34.3888
lclavicle -9.93923e-015 -1.27222e-014
lhumerus -24.7727 30.5436 26.3163
lradius 35.4183
lwrist 9.79366
lhand -19.9262 -2.12367
lfingers 7.12502
lthumb 6.41106 27.7593
rfemur 2.97435 -0.32034 21.366
rtibia 26.2203
rfoot -8.17098 -16.6699
rtoes -12.3073
lfemur -32.5105 3.21625 -6.02515
ltibia 34.3088
lfoot -1.44036 11.6009
ltoes -8.35657
729
root 1.55564 17.8425 -7.14106 6.95059 2.47017 -8.45889
lowerback 13.8763 -0.770815 -3.18223
upperback 0.93576 -1.45006 0.913283
thorax -6.69357 -0.598657 3.05001
lowerneck -18.1798 2.22739 8.30998
upperneck 13.5155 2.07417 -6.8868
head 7.28692 0.784705 -3.38885
rclavicle -1.70955e-014 1.27222e-014
rhumerus -20.652 -33.9158 -0.653773
rradius 31.2808
rwrist -1.31119
rhand -20.9942 -4.57541
rfingers 7.12502
rthumb 5.37997 -34.4871
lclavicle -1.70955e-014 1.27222e-014
lhumerus -24.6761 30.6095 26.7288
lradius 35.3567
lwrist 9.82015
lhand -19.9461 -2.1198
lfingers 7.12502
lthumb 6.39181 27.7638
rfemur 2.88973 -0.593283 21.5197
rtibia 26.6701
rfoot -7.45643 -16.2505
rtoes -12.279
lfemur -32.3116 3.12443 -5.83587
ltibia 34.3708
lfoot -1.69458 11.6355
ltoes -8.27435
730
root 1.57925 17.8607 -7.04903 6.99567 2.6916 -8.75066
lowerback 13.8071 -0.855984 -3.42004
upperback 0.896976 -1.61105 0.727471
thorax -6.68342 -0.672446 3.01643
lowerneck -18.186 2.21375 8.26674
upperneck 13.7016 1.97692 -6.34704
head 7.3349 0.787719 -3.2146
rclavicle -2.62396e-014 0
rhumerus -20.8165 -33.8251 -0.565603
rradius 31.2496
rwrist -1.37064
rhand -20.9544 -4.62555
rfingers 7.12502
rthumb 5.41833 -34.5363
lclavicle -2.62396e-014 0
lhumerus -24.5607 30.6803 27.1698
lradius 35.304
lwrist 9.83067
lhand -19.9927 -2.06658
lfingers 7.12502
lthumb 6.34682 27.8183
rfemur 2.80621 -0.859137 21.7277
rtibia 27.0888
rfoot -6.71221 -15.8559
rtoes -12.2204
lfemur -32.1168 3.01921 -5.59078
ltibia 34.4238
lfoot -1.96786 11.6753
ltoes -8.28634
731
root 1.60281 17.8788 -6.95763 7.03793 2.89856 -9.06683
lowerback 13.7266 -0.930288 -3.62178
upperback 0.871748 -1.75024 0.553105
thorax -6.65455 -0.737156 2.96959
lowerneck -18.1597 2.20414 8.25359
upperneck 13.8258 1.88235 -5.83986
head 7.35892 0.791175 -3.05509
rclavicle -2.78299e-015 -4.92986e-014
rhumerus -21.0068 -33.7173 -0.437407
rradius 31.2258
rwrist -1.41074
rhand -20.8886 -4.66574
rfingers 7.12502
rthumb 5.48195 -34.5748
lclavicle -2.78299e-015 -4.92986e-014
lhumerus -24.4237 30.7906 27.6423
lradius 35.2497
lwrist 9.802
lhand -20.0783 -1.98572
lfingers 7.12502
lthumb 6.26422 27.9017
rfemur 2.7221 -1.09731 21.9657
rtibia 27.487
rfoot -5.94777 -15.4835
rtoes -12.1699
lfemur -31.9127 2.91536 -5.30988
ltibia 34.4667
lfoot -2.24669 11.7245
ltoes -8.34641
732
root 1.62663 17.8971 -6.86669 7.07249 3.08099 -9.38233
lowerback 13.6485 -0.986998 -3.81224
upperback 0.848349 -1.86385 0.381605
thorax -6.62725 -0.789682 2.91441
lowerneck -18.1256 2.18814 8.24893
upperneck 13.9406 1.77855 -5.34489
head 7.37893 0.789925 -2.9021
rclavicle 2.06736e-014 2.8625e-014
rhumerus -21.2312 -33.6048 -0.25868
rradius 31.1925
rwrist -1.40573
rhand -20.8247 -4.59196
rfingers 7.12502
rthumb 5.54363 -34.4995
lclavicle 2.06736e-014 2.8625e-014
lhumerus -24.2883 30.8865 28.1366
lradius 35.2029
lwrist 9.72449
lhand -20.1609 -1.91313
lfingers 7.12502
lthumb 6.18446 27.9766
rfemur 2.64143 -1.30871 22.1999
rtibia 27.8755
rfoot -5.17186 -15.1234
rtoes -12.1393
lfemur -31.6855 2.82043 -5.02622
ltibia 34.4955
lfoot -2.52377 11.7787
ltoes -8.44895
733
root 1.65043 17.9153 -6.77665 7.10297 3.23921 -9.69113
lowerback 13.5637 -1.03012 -4.00404
upperback 0.837316 -1.95834 0.214715
thorax -6.58418 -0.833384 2.86067
lowerneck -18.085 2.1713 8.25977
upperneck 14.0134 1.67308 -4.87551
head 7.38508 0.786201 -2.76
rclavicle 3.1408e-014 -1.59028e-015
rhumerus -21.4628 -33.5458 -0.0465074
rradius 31.1549
rwrist -1.35466
rhand -20.7419 -4.5004
rfingers 7.12502
rthumb 5.62352 -34.4058
lclavicle 3.1408e-014 -1.59028e-015
lhumerus -24.1486 30.9826 28.6468
lradius 35.155
lwrist 9.62293
lhand -20.2542 -1.85455
lfingers 7.12502
lthumb 6.09442 28.0378
rfemur 2.55438 -1.49225 22.4263
rtibia 28.2652
rfoot -4.38595 -14.7701
rtoes -12.1502
lfemur -31.438 2.73559 -4.74642
ltibia 34.5042
lfoot -2.79155 11.8385
ltoes -8.57322
734
root 1.67449 17.9335 -6.68721 7.12508 3.37313 -9.9706
lowerback 13.4775 -1.05799 -4.21358
upperback 0.828873 -2.03481 0.0455346
thorax -6.53848 -0.867954 2.81097
lowerneck -18.0373 2.1468 8.25028
upperneck 14.0981 1.56155 -4.39867
head 7.3941 0.779583 -2.61305
rclavicle 3.45885e-014 2.70347e-014
rhumerus -21.7051 -33.5036 0.198721
rradius 31.126
rwrist -1.31925
rhand -20.6894 -4.43032
rfingers 7.12502
rthumb 5.67425 -34.3344
lclavicle 3.45885e-014 2.70347e-014
lhumerus -24.028 31.0359 29.1649
lradius 35.115
lwrist 9.51932
lhand -20.3415 -1.83584
lfingers 7.12502
lthumb 6.01012 28.0589
rfemur 2.46804 -1.65584 22.6141
rtibia 28.665
rfoot -3.58247 -14.4117
rtoes -12.1171
lfemur -31.1608 2.66562 -4.50244
ltibia 34.4889
lfoot -3.0535 11.902
ltoes -8.69798
735
root 1.69854 17.9517 -6.59849 7.14221 3.49079 -10.2096
lowerback 13.3911 -1.07735 -4.4533
upperback 0.824372 -2.10415 -0.127965
thorax -6.48802 -0.898449 2.77218
lowerneck -17.9924 2.12577 8.25782
upperneck 14.1742 1.45465 -3.95051
head 7.40219 0.773408 -2.47789
rclavicle -1.47101e-014 7.95139e-015
rhumerus -21.9355 -33.5153 0.465376
rradius 31.0896
rwrist -1.2491
rhand -20.6472 -4.35166
rfingers 7.12502
rthumb 5.715 -34.2546
lclavicle -1.47101e-014 7.95139e-015
lhumerus -23.9289 31.0807 29.6712
lradius 35.0734
lwrist 9.41263
lhand -20.3652 -1.901
lfingers 7.12502
lthumb 5.9872 27.9944
rfemur 2.37655 -1.81073 22.7534
rtibia 29.082
rfoot -2.77504 -14.0467
rtoes -12.0491
lfemur -30.8587 2.59527 -4.30459
ltibia 34.4473
lfoot -3.30655 11.979
ltoes -8.8106
736
root 1.72218 17.9699 -6.5107 7.15239 3.59373 -10.4111
lowerback 13.3177 -1.09336 -4.72433
upperback 0.817599 -2.17413 -0.305941
thorax -6.44616 -0.928176 2.74673
lowerneck -17.95 2.10172 8.23449
upperneck 14.2479 1.34813 -3.48637
head 7.41033 0.767338 -2.33243
rclavicle -2.54444e-014 -2.54444e-014
rhumerus -22.1393 -33.5297 0.729141
rradius 31.0593
rwrist -1.21078
rhand -20.6173 -4.26529
rfingers 7.12502
rthumb 5.74389 -34.1674
lclavicle -2.54444e-014 -2.54444e-014
lhumerus -23.8759 31.1154 30.1409
lradius 35.0363
lwrist 9.29601
lhand -20.3404 -2.03175
lfingers 7.12502
lthumb 6.01117 27.863
rfemur 2.27893 -1.9512 22.8515
rtibia 29.5192
rfoot -1.95623 -13.6884
rtoes -11.8503
lfemur -30.5316 2.52562 -4.14778
ltibia 34.3789
lfoot -3.54766 12.066
ltoes -8.90935
